# 3ds Max Wavefront OBJ Exporter v0.97b - (c)2007 guruware
# File Created: 17.12.2015 10:51:03

#
# object 100
#

v  -0.3858 0.0700 0.3926
v  -0.3858 0.0700 -0.3895
v  -0.3858 0.0000 -0.3895
v  -0.3858 0.0000 0.3926
v  0.3879 0.0700 0.3884
v  0.3879 0.0000 0.3884
v  0.3836 0.0700 -0.3916
v  0.3836 0.0000 -0.3916
# 8 vertices

vn -1.0000 0.0000 -0.0000
vn 0.0055 0.0000 1.0000
vn 1.0000 0.0000 -0.0054
vn -0.0027 0.0000 -1.0000
vn 0.0000 -1.0000 -0.0000
vn 0.0000 1.0000 -0.0000
# 6 vertex normals

vt 0.0222 0.1790 0.0000
vt 0.4744 0.1790 0.0000
vt 0.4744 0.0178 0.0000
vt 0.0222 0.0178 0.0000
vt 0.4668 0.1719 0.0000
vt 0.0273 0.1719 0.0000
vt 0.0273 0.0178 0.0000
vt 0.4668 0.0178 0.0000
vt 0.4736 0.1754 0.0000
vt 0.0208 0.1754 0.0000
vt 0.0208 0.0142 0.0000
vt 0.4736 0.0142 0.0000
vt 0.0239 0.1719 0.0000
vt 0.4699 0.1719 0.0000
vt 0.4699 0.0249 0.0000
vt 0.0239 0.0249 0.0000
vt 0.4805 0.9921 0.0000
vt 0.0065 0.9947 0.0000
vt 0.0039 0.0121 0.0000
vt 0.4805 0.0068 0.0000
vt 1.0000 0.0003 0.0000
vt 0.9973 0.9987 0.0000
vt 0.5005 0.9960 0.0000
vt 0.5005 -0.0051 0.0000
# 24 texture coords

g 100
s 1
f 1/1/1 2/2/1 3/3/1 4/4/1 
s 4
f 5/5/2 1/6/2 4/7/2 6/8/2 
s 2
f 7/9/3 5/10/3 6/11/3 8/12/3 
s 4
f 2/13/4 7/14/4 8/15/4 3/16/4 
s 16
f 3/17/5 8/18/5 6/19/5 4/20/5 
f 5/21/6 7/22/6 2/23/6 1/24/6 
# 6 polygons

