# 3ds Max Wavefront OBJ Exporter v0.97b - (c)2007 guruware
# File Created: 17.12.2015 10:51:03

#
# object 250
#

v  -0.9750 0.0700 -0.3834
v  0.9750 0.0700 -0.3877
v  0.9750 -0.0000 -0.3877
v  -0.9750 0.0000 -0.3834
v  -0.9665 0.0700 0.3940
v  -0.9665 0.0000 0.3940
v  0.9665 0.0700 0.3770
v  0.9665 -0.0000 0.3770
# 8 vertices

vn -0.0022 0.0000 -1.0000
vn -0.9999 0.0000 0.0109
vn 0.0088 0.0000 1.0000
vn 0.9999 0.0000 0.0111
vn -0.0000 -1.0000 0.0000
vn 0.0000 1.0000 -0.0000
# 6 vertex normals

vt 0.4832 0.1594 0.0000
vt 0.0000 0.1594 0.0000
vt 0.0000 0.0000 0.0000
vt 0.4832 0.0000 0.0000
vt 0.4867 0.1690 0.0000
vt 0.0000 0.1690 0.0000
vt 0.4867 0.0000 0.0000
vt 0.4777 0.1602 0.0000
vt 0.0000 0.1602 0.0000
vt 0.4777 0.0000 0.0000
vt 0.4920 0.1779 0.0000
vt 0.0000 0.1779 0.0000
vt 0.4920 0.0000 0.0000
vt 0.0002 0.0001 0.0000
vt 0.5006 0.0001 0.0000
vt 0.5006 1.0001 0.0000
vt 0.0002 1.0001 0.0000
vt 0.5011 0.9996 0.0000
vt 0.5011 0.0007 0.0000
vt 0.9999 0.0007 0.0000
vt 0.9999 0.9996 0.0000
# 21 texture coords

g 250
s 1
f 1/1/1 2/2/1 3/3/1 4/4/1 
s 4
f 5/5/2 1/6/2 4/3/2 6/7/2 
s 2
f 7/8/3 5/9/3 6/3/3 8/10/3 
s 4
f 2/11/4 7/12/4 8/3/4 3/13/4 
s 16
f 8/14/5 6/15/5 4/16/5 3/17/5 
f 1/18/6 5/19/6 7/20/6 2/21/6 
# 6 polygons

