# 3ds Max Wavefront OBJ Exporter v0.97b - (c)2007 guruware
# File Created: 17.12.2015 10:51:00

#
# object 350
#

v  -1.3575 0.0700 0.3842
v  -1.3596 0.0700 -0.3852
v  -1.3596 0.0000 -0.3852
v  -1.3575 0.0000 0.3842
v  1.3586 0.0700 0.3863
v  1.3586 0.0000 0.3863
v  1.3586 0.0700 -0.3852
v  1.3586 0.0000 -0.3852
# 8 vertices

vn -1.0000 0.0000 0.0027
vn -0.0008 0.0000 1.0000
vn 1.0000 0.0000 -0.0000
vn 0.0000 0.0000 -1.0000
vn 0.0000 -1.0000 -0.0000
vn 0.0000 1.0000 -0.0000
# 6 vertex normals

vt 0.0000 0.0000 0.0000
vt 0.2162 0.0000 0.0000
vt 0.2162 0.1224 0.0000
vt 0.0000 0.1224 0.0000
vt 0.4562 0.0000 0.0000
vt 0.4562 0.1127 0.0000
vt 0.0000 0.1127 0.0000
vt 0.2196 0.0000 0.0000
vt 0.2196 0.1015 0.0000
vt 0.0000 0.1015 0.0000
vt 0.4540 0.0000 0.0000
vt 0.4540 0.1433 0.0000
vt 0.0000 0.1433 0.0000
vt 0.0001 0.9969 0.0000
vt 0.0001 -0.0004 0.0000
vt 0.5003 -0.0004 0.0000
vt 0.5003 0.9969 0.0000
vt 0.5047 0.0000 0.0000
vt 1.0000 0.0000 0.0000
vt 1.0000 1.0000 0.0000
vt 0.5047 1.0000 0.0000
# 21 texture coords

g 350
s 1
f 1/1/1 2/2/1 3/3/1 4/4/1 
s 4
f 5/1/2 1/5/2 4/6/2 6/7/2 
s 2
f 7/1/3 5/8/3 6/9/3 8/10/3 
s 4
f 2/1/4 7/11/4 8/12/4 3/13/4 
s 16
f 8/14/5 6/15/5 4/16/5 3/17/5 
f 1/18/6 5/19/6 7/20/6 2/21/6 
# 6 polygons

