# 3ds Max Wavefront OBJ Exporter v0.97b - (c)2007 guruware
# File Created: 17.12.2015 10:51:01

#
# object 400
#

v  -0.7794 0.0700 0.7742
v  -0.7705 0.0700 -0.7742
v  -0.7705 0.0000 -0.7742
v  -0.7794 0.0000 0.7742
v  0.7780 0.0700 0.7772
v  0.7780 0.0000 0.7772
v  0.7720 0.0700 -0.7772
v  0.7720 0.0000 -0.7772
# 8 vertices

vn -1.0000 0.0000 -0.0058
vn -0.0019 0.0000 1.0000
vn 1.0000 0.0000 -0.0038
vn -0.0019 0.0000 -1.0000
vn 0.0000 -1.0000 -0.0000
vn 0.0000 1.0000 -0.0000
# 6 vertex normals

vt 0.4736 0.2715 0.0000
vt -0.0000 0.2715 0.0000
vt -0.0000 0.0000 0.0000
vt 0.4736 0.0000 0.0000
vt 0.4709 0.2662 0.0000
vt -0.0000 0.2662 0.0000
vt 0.4709 0.0000 0.0000
vt 0.4655 0.2554 0.0000
vt -0.0000 0.2554 0.0000
vt 0.4655 0.0000 0.0000
vt 0.4628 0.2715 0.0000
vt 0.4628 0.0000 0.0000
vt 0.4957 0.0030 0.0000
vt 0.4957 0.9917 0.0000
vt 0.0002 0.9917 0.0000
vt 0.0002 0.0030 0.0000
vt 1.0000 0.9987 0.0000
vt 0.5035 0.9987 0.0000
vt 0.5035 0.0000 0.0000
vt 1.0000 0.0000 0.0000
# 20 texture coords

g 400
s 1
f 1/1/1 2/2/1 3/3/1 4/4/1 
s 4
f 5/5/2 1/6/2 4/3/2 6/7/2 
s 2
f 7/8/3 5/9/3 6/3/3 8/10/3 
s 4
f 2/11/4 7/2/4 8/3/4 3/12/4 
s 16
f 4/13/5 3/14/5 8/15/5 6/16/5 
f 7/17/6 2/18/6 1/19/6 5/20/6 
# 6 polygons

