# 3ds Max Wavefront OBJ Exporter v0.97b - (c)2007 guruware
# File Created: 18.12.2015 09:45:00

#
# object Line006
#

v  -3.2306 0.0000 -0.6757
v  -3.2843 0.0000 0.3455
v  -3.2843 0.0700 0.3455
v  -3.2306 0.0700 -0.6757
v  1.6162 0.0700 5.3497
v  1.6162 0.0175 5.3497
v  3.2498 0.0700 7.0178
v  -1.6508 0.0175 2.0136
v  3.2613 0.0700 -3.2613
v  3.2613 0.0175 -3.2613
v  3.2632 0.0437 -4.9745
v  3.2498 0.0000 7.0178
v  3.2517 0.0000 5.3046
v  3.2517 0.0438 5.3046
v  -1.6066 0.0700 -2.1787
v  -1.6066 0.0175 -2.1787
v  3.2651 0.0000 -6.6876
v  1.6412 0.0175 -5.1847
v  3.2651 0.0700 -6.6876
v  0.0086 0.0000 -1.8408
v  -1.6220 0.0000 -0.2102
v  -1.6066 0.0000 -2.1787
v  1.6393 0.0000 -3.4715
v  1.6239 0.0000 -1.5030
v  -1.6220 0.0700 -0.2102
v  -1.6508 0.0700 2.0136
v  1.6201 0.0700 1.9234
v  -0.0154 0.0700 1.9685
v  1.6182 0.0700 3.6366
v  3.2574 0.0700 0.1651
v  3.2555 0.0700 1.8783
v  3.2574 0.0350 0.1651
v  3.2594 0.0700 -1.5481
v  3.2594 0.0088 -1.5481
v  3.2536 0.0175 3.5914
v  3.2555 0.0088 1.8783
v  0.0173 0.0700 -3.6817
v  0.0086 0.0700 -1.8408
v  3.2613 0.0000 -3.2613
v  -0.0154 0.0000 1.9685
v  -0.0173 0.0000 3.6817
v  -1.6508 0.0000 2.0136
v  -0.0173 0.0350 3.6817
v  3.2517 0.0700 5.3046
v  1.6162 0.0000 5.3497
v  1.6201 0.0000 1.9234
v  -0.0134 0.0000 0.2553
v  0.0173 0.0000 -3.6817
v  0.0173 0.0350 -3.6817
v  1.6412 0.0700 -5.1847
v  -0.0134 0.0700 0.2553
v  1.6239 0.0700 -1.5030
v  3.2632 0.0000 -4.9745
v  1.6412 0.0000 -5.1847
v  3.2574 0.0000 0.1651
v  3.2555 0.0000 1.8783
v  1.6220 0.0000 0.2102
v  3.2536 0.0700 3.5914
v  1.6220 0.0700 0.2102
v  3.2536 0.0000 3.5914
v  1.6182 0.0000 3.6366
v  1.6393 0.0700 -3.4715
v  3.2632 0.0700 -4.9745
v  -0.0173 0.0700 3.6817
v  3.2594 0.0000 -1.5481
# 65 vertices

vn -0.9986 0.0000 -0.0526
vn -0.7145 0.0000 0.6997
vn -0.7145 -0.0000 0.6997
vn 1.0000 0.0000 0.0011
vn -0.6793 0.0000 -0.7339
vn 0.0000 -1.0000 -0.0000
vn 0.0000 1.0000 -0.0000
# 7 vertex normals

vt 0.0000 0.4803 0.5000
vt 0.0044 0.5537 0.5000
vt 0.5026 0.4877 1.5000
vt 0.5057 0.5586 1.5000
vt 0.8768 0.1117 1.5000
vt 0.5023 0.6267 0.7500
vt 1.0015 -0.0136 1.5000
vt 0.2537 0.4118 0.7500
vt 0.9973 0.7427 1.5000
vt 0.6256 0.4943 0.7500
vt 0.8107 0.7445 1.1250
vt 0.5016 0.9835 0.5000
vt 0.5017 0.8605 0.5000
vt 0.8133 0.4863 1.1250
vt 0.6282 0.6677 1.5000
vt 0.2521 0.3797 0.7500
vt 0.5026 -0.0004 0.5000
vt 0.5033 0.1393 0.7500
vt 0.9959 0.9948 1.5000
vt 0.2517 0.3721 0.5000
vt 0.1266 0.5015 0.5000
vt 0.1257 0.3601 0.5000
vt 0.3768 0.2427 0.5000
vt 0.3778 0.3841 0.5000
vt 0.6282 0.5239 1.5000
vt 0.6273 0.3624 1.5000
vt 0.8754 0.3638 1.5000
vt 0.7514 0.3631 1.5000
vt 0.8761 0.2378 1.5000
vt 0.9987 0.4906 1.5000
vt 0.9994 0.3645 1.5000
vt 0.7487 0.9891 1.0000
vt 0.9980 0.6166 1.5000
vt 0.5639 0.4929 0.6250
vt 0.6251 0.9863 0.7500
vt 0.5636 0.7389 0.6250
vt 0.7508 0.7767 1.5000
vt 0.7511 0.6418 1.5000
vt 0.5023 0.2455 0.5000
vt 0.2531 0.6456 0.5000
vt 0.2530 0.7686 0.5000
vt 0.1287 0.6611 0.5000
vt 0.5030 0.2700 1.0000
vt 1.0008 0.1124 1.5000
vt 0.3773 0.8760 0.5000
vt 0.3775 0.6300 0.5000
vt 0.2532 0.5226 0.5000
vt 0.2513 0.2399 0.5000
vt 0.5041 0.2791 1.0000
vt 0.8733 0.8857 1.5000
vt 0.7507 0.4892 1.5000
vt 0.8740 0.6159 1.5000
vt 0.5024 0.1225 0.5000
vt 0.3769 0.1197 0.5000
vt 0.5021 0.4915 0.5000
vt 0.5019 0.6145 0.5000
vt 0.3776 0.5071 0.5000
vt 1.0001 0.2385 1.5000
vt 0.8747 0.4899 1.5000
vt 0.5018 0.7375 0.5000
vt 0.3774 0.7530 0.5000
vt 0.8740 0.7597 1.5000
vt 0.9966 0.8687 1.5000
vt 0.7521 0.2371 1.5000
vt 0.5022 0.3685 0.5000
# 65 texture coords

g Line006
s 1
f 1/1/1 2/2/1 3/3/1 
f 1/1/1 3/3/1 4/4/1 
s 4
f 5/5/2 6/6/3 7/7/2 
f 2/2/3 8/8/3 3/3/2 
s 2
f 9/9/4 10/10/4 11/11/4 
f 12/12/4 13/13/4 14/14/4 
s 4
f 15/15/5 16/16/5 4/4/5 
f 17/17/5 18/18/5 19/19/5 
s 16
f 20/20/6 21/21/6 22/22/6 
f 23/23/6 24/24/6 20/20/6 
f 25/25/7 3/3/7 26/26/7 
f 27/27/7 28/28/7 29/29/7 
s 2
f 30/30/4 31/31/4 32/32/4 
f 33/33/4 34/34/4 10/10/4 
f 35/35/4 36/36/4 31/31/4 
s 16
f 37/37/7 15/15/7 38/38/7 
s 2
f 34/34/4 39/39/4 10/10/4 
s 16
f 40/40/6 41/41/6 42/42/6 
s 4
f 8/8/3 41/41/3 43/43/3 
f 43/43/3 6/6/3 5/5/2 
f 8/8/3 43/43/3 26/26/2 
s 16
f 29/29/7 5/5/7 44/44/7 
s 4
f 41/41/3 45/45/3 6/6/3 
s 16
f 46/46/6 40/40/6 47/47/6 
s 4
f 18/18/5 48/48/5 49/49/5 
f 49/49/5 16/16/5 15/15/5 
f 18/18/5 49/49/5 50/50/5 
s 16
f 38/38/7 51/51/7 52/52/7 
s 4
f 48/48/5 22/22/5 16/16/5 
s 16
f 53/53/6 23/23/6 54/54/6 
s 2
f 55/55/4 34/34/4 32/32/4 
f 11/11/4 17/17/4 19/19/4 
f 14/14/4 13/13/4 35/35/4 
f 31/31/4 36/36/4 32/32/4 
s 16
f 25/25/7 26/26/7 51/51/7 
f 33/33/7 52/52/7 30/30/7 
f 56/56/6 46/46/6 57/57/6 
f 2/2/6 1/1/6 21/21/6 
s 2
f 14/14/4 58/58/4 44/44/4 
s 16
f 59/59/7 27/27/7 31/31/7 
s 2
f 60/60/4 56/56/4 36/36/4 
s 16
f 13/13/6 45/45/6 61/61/6 
s 2
f 33/33/4 32/32/4 34/34/4 
s 16
f 50/50/7 62/62/7 63/63/7 
s 2
f 10/10/4 53/53/4 11/11/4 
s 16
f 55/55/6 57/57/6 24/24/6 
s 4
f 41/41/3 6/6/3 43/43/3 
f 6/6/3 12/12/3 7/7/2 
f 2/2/3 42/42/3 8/8/3 
f 26/26/2 43/43/3 64/64/2 
f 48/48/5 16/16/5 49/49/5 
f 16/16/5 1/1/5 4/4/5 
f 17/17/5 54/54/5 18/18/5 
f 50/50/5 49/49/5 37/37/5 
f 8/8/3 26/26/2 3/3/2 
s 16
f 28/28/7 64/64/7 29/29/7 
s 4
f 37/37/5 49/49/5 15/15/5 
s 16
f 4/4/7 25/25/7 15/15/7 
s 4
f 42/42/3 41/41/3 8/8/3 
s 16
f 42/42/6 2/2/6 21/21/6 
s 4
f 22/22/5 1/1/5 16/16/5 
s 16
f 23/23/6 20/20/6 48/48/6 
s 4
f 64/64/2 43/43/3 5/5/2 
s 16
f 5/5/7 7/7/7 44/44/7 
f 51/51/7 26/26/7 28/28/7 
f 27/27/7 58/58/7 31/31/7 
s 4
f 45/45/3 12/12/3 6/6/3 
s 16
f 45/45/6 41/41/6 61/61/6 
f 46/46/6 47/47/6 57/57/6 
f 60/60/6 61/61/6 46/46/6 
s 4
f 18/18/5 50/50/5 19/19/5 
s 16
f 37/37/7 62/62/7 50/50/7 
f 52/52/7 51/51/7 59/59/7 
f 62/62/7 52/52/7 9/9/7 
s 4
f 54/54/5 48/48/5 18/18/5 
s 16
f 53/53/6 54/54/6 17/17/6 
f 20/20/6 47/47/6 21/21/6 
f 65/65/6 24/24/6 39/39/6 
s 2
f 55/55/4 65/65/4 34/34/4 
f 33/33/4 10/10/4 9/9/4 
f 63/63/4 11/11/4 19/19/4 
f 10/10/4 39/39/4 53/53/4 
f 60/60/4 36/36/4 35/35/4 
f 36/36/4 55/55/4 32/32/4 
f 35/35/4 58/58/4 14/14/4 
f 12/12/4 14/14/4 7/7/4 
s 16
f 25/25/7 51/51/7 38/38/7 
f 4/4/7 3/3/7 25/25/7 
f 21/21/6 1/1/6 22/22/6 
f 42/42/6 21/21/6 47/47/6 
f 27/27/7 29/29/7 58/58/7 
f 64/64/7 5/5/7 29/29/7 
s 2
f 14/14/4 44/44/4 7/7/4 
s 16
f 29/29/7 44/44/7 58/58/7 
f 52/52/7 59/59/7 30/30/7 
f 51/51/7 27/27/7 59/59/7 
s 2
f 58/58/4 35/35/4 31/31/4 
s 16
f 59/59/7 31/31/7 30/30/7 
f 26/26/7 64/64/7 28/28/7 
f 51/51/7 28/28/7 27/27/7 
s 2
f 13/13/4 60/60/4 35/35/4 
s 16
f 12/12/6 45/45/6 13/13/6 
f 61/61/6 41/41/6 40/40/6 
f 13/13/6 61/61/6 60/60/6 
s 2
f 56/56/4 55/55/4 36/36/4 
s 16
f 60/60/6 46/46/6 56/56/6 
f 57/57/6 47/47/6 24/24/6 
f 56/56/6 57/57/6 55/55/6 
f 40/40/6 42/42/6 47/47/6 
f 46/46/6 61/61/6 40/40/6 
s 2
f 9/9/4 11/11/4 63/63/4 
s 16
f 50/50/7 63/63/7 19/19/7 
f 37/37/7 38/38/7 62/62/7 
f 62/62/7 9/9/7 63/63/7 
s 2
f 30/30/4 32/32/4 33/33/4 
s 16
f 9/9/7 52/52/7 33/33/7 
f 15/15/7 25/25/7 38/38/7 
f 62/62/7 38/38/7 52/52/7 
f 39/39/6 24/24/6 23/23/6 
f 23/23/6 48/48/6 54/54/6 
s 2
f 53/53/4 17/17/4 11/11/4 
s 16
f 39/39/6 23/23/6 53/53/6 
s 2
f 65/65/4 39/39/4 34/34/4 
s 16
f 55/55/6 24/24/6 65/65/6 
f 20/20/6 22/22/6 48/48/6 
f 24/24/6 47/47/6 20/20/6 
# 0 polygons - 126 triangles

