# 3ds Max Wavefront OBJ Exporter v0.97b - (c)2007 guruware
# File Created: 17.12.2015 10:51:00

#
# object coin5000
#

v  0.2982 0.0700 -0.0702
v  0.3063 0.0700 -0.0000
v  0.3063 0.0000 -0.0000
v  0.2982 0.0000 -0.0702
v  0.2751 0.0700 -0.1346
v  0.2751 0.0000 -0.1346
v  0.2389 0.0700 -0.1915
v  0.2389 0.0000 -0.1915
v  0.1915 0.0700 -0.2389
v  0.1915 0.0000 -0.2389
v  0.1346 0.0700 -0.2751
v  0.1346 0.0000 -0.2751
v  0.0702 0.0700 -0.2982
v  0.0702 0.0000 -0.2982
v  0.0000 0.0700 -0.3063
v  0.0000 0.0000 -0.3063
v  -0.0702 0.0700 -0.2982
v  -0.0702 0.0000 -0.2982
v  -0.1346 0.0700 -0.2751
v  -0.1346 0.0000 -0.2751
v  -0.1915 0.0700 -0.2389
v  -0.1915 0.0000 -0.2389
v  -0.2389 0.0700 -0.1915
v  -0.2389 0.0000 -0.1915
v  -0.2751 0.0700 -0.1346
v  -0.2751 0.0000 -0.1346
v  -0.2982 0.0700 -0.0702
v  -0.2982 0.0000 -0.0702
v  -0.3063 0.0700 -0.0000
v  -0.3063 0.0000 -0.0000
v  -0.2982 0.0700 0.0702
v  -0.2982 0.0000 0.0702
v  -0.2751 0.0700 0.1346
v  -0.2751 0.0000 0.1346
v  -0.2389 0.0700 0.1915
v  -0.2389 0.0000 0.1915
v  -0.1915 0.0700 0.2389
v  -0.1915 0.0000 0.2389
v  -0.1346 0.0700 0.2751
v  -0.1346 0.0000 0.2751
v  -0.0702 0.0700 0.2982
v  -0.0702 0.0000 0.2982
v  0.0000 0.0700 0.3063
v  0.0000 0.0000 0.3063
v  0.0702 0.0700 0.2982
v  0.0702 0.0000 0.2982
v  0.1346 0.0700 0.2751
v  0.1346 0.0000 0.2751
v  0.1915 0.0700 0.2389
v  0.1915 0.0000 0.2389
v  0.2389 0.0700 0.1915
v  0.2389 0.0000 0.1915
v  0.2751 0.0700 0.1346
v  0.2751 0.0000 0.1346
v  0.2982 0.0700 0.0702
v  0.2982 0.0000 0.0702
# 56 vertices

vn 0.9738 0.0000 -0.2272
vn 1.0000 0.0000 -0.0000
vn 1.0000 0.0000 0.0000
vn 0.8982 0.0000 -0.4395
vn 0.7801 0.0000 -0.6257
vn 0.6257 0.0000 -0.7801
vn 0.4395 0.0000 -0.8982
vn 0.2272 0.0000 -0.9738
vn 0.0000 0.0000 -1.0000
vn -0.2272 0.0000 -0.9738
vn -0.4395 0.0000 -0.8982
vn -0.6257 0.0000 -0.7801
vn -0.7801 0.0000 -0.6257
vn -0.8982 0.0000 -0.4395
vn -0.9738 0.0000 -0.2272
vn -1.0000 0.0000 0.0000
vn -1.0000 0.0000 -0.0000
vn -0.9738 0.0000 0.2272
vn -0.8982 0.0000 0.4395
vn -0.7801 0.0000 0.6257
vn -0.6257 0.0000 0.7801
vn -0.4395 0.0000 0.8982
vn -0.2272 0.0000 0.9738
vn 0.0000 0.0000 1.0000
vn 0.2272 0.0000 0.9738
vn 0.4395 0.0000 0.8982
vn 0.6257 0.0000 0.7801
vn 0.7801 0.0000 0.6257
vn 0.8982 0.0000 0.4395
vn 0.9738 0.0000 0.2272
vn 0.0000 -1.0000 -0.0000
vn 0.0000 1.0000 -0.0000
# 32 vertex normals

vt 0.2707 0.8667 0.0000
vt 0.1974 0.8667 0.0000
vt 0.1974 0.7714 0.0000
vt 0.2707 0.7714 0.0000
vt 0.2215 0.0103 0.0000
vt 0.2767 0.0089 0.0000
vt 0.3314 0.0319 0.0000
vt 0.3838 0.0802 0.0000
vt 0.4291 0.1506 0.0000
vt 0.4640 0.2365 0.0000
vt 0.4880 0.3340 0.0000
vt 0.5006 0.4389 0.0000
vt 0.5013 0.5472 0.0000
vt 0.4895 0.6547 0.0000
vt 0.4650 0.7574 0.0000
vt 0.4291 0.8464 0.0000
vt 0.3853 0.9149 0.0000
vt 0.3356 0.9620 0.0000
vt 0.2822 0.9867 0.0000
vt 0.2270 0.9880 0.0000
vt 0.1723 0.9650 0.0000
vt 0.1199 0.9168 0.0000
vt 0.0746 0.8464 0.0000
vt 0.0397 0.7604 0.0000
vt 0.0157 0.6629 0.0000
vt 0.0031 0.5580 0.0000
vt 0.1681 0.0350 0.0000
vt 0.1184 0.0820 0.0000
vt 0.0024 0.4498 0.0000
vt 0.0141 0.3423 0.0000
vt 0.0746 0.1506 0.0000
vt 0.0387 0.2396 0.0000
vt 0.0699 0.1521 0.0000
vt 0.1155 0.0817 0.0000
vt 0.1681 0.0334 0.0000
vt 0.0348 0.2381 0.0000
vt 0.0092 0.6562 0.0000
vt -0.0026 0.5487 0.0000
vt -0.0019 0.4405 0.0000
vt 0.0339 0.7589 0.0000
vt 0.0699 0.8479 0.0000
vt 0.1140 0.9164 0.0000
vt 0.1639 0.9635 0.0000
vt 0.2176 0.9882 0.0000
vt 0.2731 0.9895 0.0000
vt 0.3281 0.9666 0.0000
vt 0.3807 0.9183 0.0000
vt 0.4263 0.8479 0.0000
vt 0.4614 0.7619 0.0000
vt 0.4855 0.6644 0.0000
vt 0.4981 0.5595 0.0000
vt 0.4988 0.4513 0.0000
vt 0.4870 0.3438 0.0000
vt 0.4623 0.2411 0.0000
vt 0.4263 0.1521 0.0000
vt 0.3823 0.0836 0.0000
vt 0.3323 0.0365 0.0000
vt 0.2786 0.0118 0.0000
vt 0.0107 0.3356 0.0000
vt 0.2232 0.0105 0.0000
# 60 texture coords

g coin5000
s 1
f 1/1/1 2/2/2 3/3/3 4/4/1 
s 3
f 5/1/4 1/2/1 4/3/1 6/4/4 
s 2
f 7/1/5 5/2/4 6/3/4 8/4/5 
f 9/1/6 7/2/5 8/3/5 10/4/6 
f 11/1/7 9/2/6 10/3/6 12/4/7 
f 13/1/8 11/2/7 12/3/7 14/4/8 
f 15/1/9 13/2/8 14/3/8 16/4/9 
f 17/1/10 15/2/9 16/3/9 18/4/10 
f 19/1/11 17/2/10 18/3/10 20/4/11 
f 21/1/12 19/2/11 20/3/11 22/4/12 
f 23/1/13 21/2/12 22/3/12 24/4/13 
f 25/1/14 23/2/13 24/3/13 26/4/14 
f 27/1/15 25/2/14 26/3/14 28/4/15 
f 29/1/16 27/2/15 28/3/15 30/4/17 
f 31/1/18 29/2/16 30/3/17 32/4/18 
f 33/1/19 31/2/18 32/3/18 34/4/19 
f 35/1/20 33/2/19 34/3/19 36/4/20 
f 37/1/21 35/2/20 36/3/20 38/4/21 
f 39/1/22 37/2/21 38/3/21 40/4/22 
f 41/1/23 39/2/22 40/3/22 42/4/23 
f 43/1/24 41/2/23 42/3/23 44/4/24 
f 45/1/25 43/2/24 44/3/24 46/4/25 
f 47/1/26 45/2/25 46/3/25 48/4/26 
f 49/1/27 47/2/26 48/3/26 50/4/27 
f 51/1/28 49/2/27 50/3/27 52/4/28 
f 53/1/29 51/2/28 52/3/28 54/4/29 
f 55/1/30 53/2/29 54/3/29 56/4/30 
s 3
f 2/1/2 55/2/30 56/3/30 3/4/3 
s 16
f 36/5/31 34/6/31 32/7/31 30/8/31 
f 36/5/31 30/8/31 28/9/31 26/10/31 
f 36/5/31 26/10/31 24/11/31 22/12/31 
f 36/5/31 22/12/31 20/13/31 18/14/31 
f 36/5/31 18/14/31 16/15/31 14/16/31 
f 36/5/31 14/16/31 12/17/31 10/18/31 
f 36/5/31 10/18/31 8/19/31 6/20/31 
f 36/5/31 6/20/31 4/21/31 3/22/31 
f 36/5/31 3/22/31 56/23/31 54/24/31 
f 36/5/31 54/24/31 52/25/31 50/26/31 
f 38/27/31 36/5/31 50/26/31 40/28/31 
f 40/28/31 50/26/31 48/29/31 46/30/31 
f 42/31/31 40/28/31 46/30/31 44/32/31 
f 41/33/32 43/34/32 45/35/32 39/36/32 
f 31/37/32 33/38/32 35/39/32 29/40/32 
f 27/41/32 29/40/32 35/39/32 25/42/32 
f 23/43/32 25/42/32 35/39/32 21/44/32 
f 19/45/32 21/44/32 35/39/32 17/46/32 
f 15/47/32 17/46/32 35/39/32 13/48/32 
f 11/49/32 13/48/32 35/39/32 9/50/32 
f 7/51/32 9/50/32 35/39/32 5/52/32 
f 1/53/32 5/52/32 35/39/32 2/54/32 
f 55/55/32 2/54/32 35/39/32 53/56/32 
f 51/57/32 53/56/32 35/39/32 49/58/32 
f 49/58/32 35/39/32 37/59/32 39/36/32 
f 47/60/32 49/58/32 39/36/32 45/35/32 
# 54 polygons

