# 3ds Max Wavefront OBJ Exporter v0.97b - (c)2007 guruware
# File Created: 05.01.2016 20:42:57

mtllib customticket.mtl

#
# object Line009
#

v  -1.1741 0.0000 -0.1756
v  -1.1362 0.0000 -0.1750
v  -1.1362 0.0500 -0.1750
v  -1.1741 0.0500 -0.1756
v  -1.0989 0.0000 -0.1728
v  -1.0989 0.0500 -0.1728
v  -1.0627 0.0000 -0.1677
v  -1.0627 0.0500 -0.1677
v  -1.0283 0.0000 -0.1582
v  -1.0283 0.0500 -0.1582
v  -0.9961 0.0000 -0.1427
v  -0.9961 0.0500 -0.1427
v  -0.9669 0.0000 -0.1197
v  -0.9669 0.0500 -0.1197
v  -0.9410 0.0000 -0.0879
v  -0.9410 0.0500 -0.0879
v  -0.9219 0.0000 -0.0525
v  -0.9219 0.0500 -0.0525
v  -0.9115 0.0000 -0.0197
v  -0.9115 0.0500 -0.0197
v  -0.9082 0.0000 0.0111
v  -0.9082 0.0500 0.0111
v  -0.9108 0.0000 0.0401
v  -0.9108 0.0500 0.0401
v  -0.9176 0.0000 0.0679
v  -0.9176 0.0500 0.0679
v  -0.9274 0.0000 0.0948
v  -0.9274 0.0500 0.0948
v  -0.9385 0.0000 0.1213
v  -0.9385 0.0500 0.1213
v  -0.9620 0.0000 0.1440
v  -0.9620 0.0500 0.1440
v  -0.9868 0.0000 0.1654
v  -0.9868 0.0500 0.1654
v  -1.0142 0.0000 0.1839
v  -1.0142 0.0500 0.1839
v  -1.0456 0.0000 0.1983
v  -1.0456 0.0500 0.1983
v  -1.0824 0.0000 0.2071
v  -1.0824 0.0500 0.2071
v  -1.1258 0.0000 0.2088
v  -1.1258 0.0500 0.2088
v  -1.1773 0.0000 0.2022
v  -1.1773 0.0500 0.2022
v  -1.1785 0.0000 0.4807
v  -1.1785 0.0500 0.4807
v  -1.1710 0.0000 0.5053
v  -1.1710 0.0500 0.5053
v  -1.1614 0.0000 0.5287
v  -1.1614 0.0500 0.5287
v  -1.1474 0.0000 0.5501
v  -1.1474 0.0500 0.5501
v  -1.1269 0.0000 0.5682
v  -1.1269 0.0500 0.5682
v  -1.0978 0.0000 0.5820
v  -1.0978 0.0500 0.5820
v  -1.0579 0.0000 0.5904
v  -1.0579 0.0500 0.5904
v  -1.0049 0.0000 0.5924
v  -1.0049 0.0500 0.5924
v  1.0204 0.0000 0.5984
v  1.0204 0.0500 0.5984
v  1.0435 0.0000 0.5900
v  1.0435 0.0500 0.5900
v  1.0659 0.0000 0.5806
v  1.0659 0.0500 0.5806
v  1.0865 0.0000 0.5691
v  1.0865 0.0500 0.5691
v  1.1045 0.0000 0.5546
v  1.1045 0.0500 0.5546
v  1.1190 0.0000 0.5360
v  1.1190 0.0500 0.5360
v  1.1292 0.0000 0.5122
v  1.1292 0.0500 0.5122
v  1.1343 0.0000 0.4823
v  1.1343 0.0500 0.4823
v  1.1363 0.0000 0.2197
v  1.1363 0.0500 0.2197
v  1.1116 0.0000 0.2197
v  1.1116 0.0500 0.2197
v  1.0862 0.0000 0.2179
v  1.0862 0.0500 0.2179
v  1.0598 0.0000 0.2133
v  1.0598 0.0500 0.2133
v  1.0318 0.0000 0.2049
v  1.0318 0.0500 0.2049
v  1.0018 0.0000 0.1917
v  1.0018 0.0500 0.1917
v  0.9694 0.0000 0.1725
v  0.9694 0.0500 0.1725
v  0.9341 0.0000 0.1464
v  0.9341 0.0500 0.1464
v  0.9027 0.0000 0.1053
v  0.9027 0.0500 0.1053
v  0.8849 0.0000 0.0631
v  0.8849 0.0500 0.0631
v  0.8790 0.0000 0.0212
v  0.8790 0.0500 0.0212
v  0.8837 0.0000 -0.0193
v  0.8837 0.0500 -0.0193
v  0.8972 0.0000 -0.0570
v  0.8972 0.0500 -0.0570
v  0.9183 0.0000 -0.0907
v  0.9183 0.0500 -0.0907
v  0.9453 0.0000 -0.1191
v  0.9453 0.0500 -0.1191
v  0.9799 0.0000 -0.1444
v  0.9799 0.0500 -0.1444
v  1.0119 0.0000 -0.1627
v  1.0119 0.0500 -0.1627
v  1.0415 0.0000 -0.1751
v  1.0415 0.0500 -0.1751
v  1.0691 0.0000 -0.1827
v  1.0691 0.0500 -0.1827
v  1.0947 0.0000 -0.1865
v  1.0947 0.0500 -0.1865
v  1.1187 0.0000 -0.1877
v  1.1187 0.0500 -0.1877
v  1.1413 0.0000 -0.1875
v  1.1413 0.0500 -0.1875
v  1.1436 0.0000 -0.4234
v  1.1436 0.0500 -0.4234
v  1.1377 0.0000 -0.4383
v  1.1377 0.0500 -0.4383
v  1.1302 0.0000 -0.4533
v  1.1302 0.0500 -0.4533
v  1.1197 0.0000 -0.4686
v  1.1197 0.0500 -0.4686
v  1.1046 0.0000 -0.4843
v  1.1046 0.0500 -0.4843
v  1.0834 0.0000 -0.5005
v  1.0834 0.0500 -0.5005
v  1.0545 0.0000 -0.5173
v  1.0545 0.0500 -0.5173
v  1.0164 0.0000 -0.5349
v  1.0164 0.0500 -0.5349
v  -1.0314 0.0000 -0.5435
v  -1.0314 0.0500 -0.5435
v  -1.0531 0.0000 -0.5384
v  -1.0531 0.0500 -0.5384
v  -1.0742 0.0000 -0.5327
v  -1.0742 0.0500 -0.5327
v  -1.0947 0.0000 -0.5251
v  -1.0947 0.0500 -0.5251
v  -1.1147 0.0000 -0.5144
v  -1.1147 0.0500 -0.5144
v  -1.1341 0.0000 -0.4992
v  -1.1341 0.0500 -0.4992
v  -1.1530 0.0000 -0.4782
v  -1.1530 0.0500 -0.4782
v  -1.1715 0.0000 -0.4500
v  -1.1715 0.0500 -0.4500
# 152 vertices

vn -0.0172 0.0000 0.9999
vn -0.0372 0.0000 0.9993
vn -0.0985 0.0000 0.9951
vn -0.2040 0.0000 0.9790
vn -0.3523 0.0000 0.9359
vn -0.5286 0.0000 0.8489
vn -0.7011 0.0000 0.7130
vn -0.8320 0.0000 0.5548
vn -0.9205 0.0000 0.3908
vn -0.9787 0.0000 0.2051
vn -1.0000 0.0000 0.0092
vn -0.9865 0.0000 -0.1635
vn -0.9570 0.0000 -0.2901
vn -0.9313 0.0000 -0.3644
vn -0.9214 0.0000 -0.3885
vn -0.6963 0.0000 -0.7177
vn -0.6748 0.0000 -0.7380
vn -0.6074 0.0000 -0.7944
vn -0.4894 0.0000 -0.8720
vn -0.3252 0.0000 -0.9456
vn -0.1370 0.0000 -0.9906
vn 0.0436 0.0000 -0.9991
vn 0.1276 0.0000 -0.9918
vn -1.0000 0.0000 -0.0043
vn -0.9567 0.0000 0.2911
vn -0.9420 0.0000 0.3357
vn -0.8848 0.0000 0.4659
vn -0.7563 0.0000 0.6543
vn -0.5508 0.0000 0.8346
vn -0.3194 0.0000 0.9476
vn -0.1222 0.0000 0.9925
vn -0.0201 0.0000 0.9998
vn -0.0030 0.0000 1.0000
vn 0.3405 0.0000 0.9402
vn 0.3648 0.0000 0.9311
vn 0.4383 0.0000 0.8988
vn 0.5595 0.0000 0.8288
vn 0.7130 0.0000 0.7012
vn 0.8605 0.0000 0.5094
vn 0.9592 0.0000 0.2826
vn 0.9962 0.0000 0.0872
vn 1.0000 0.0000 0.0078
vn 0.0022 0.0000 -1.0000
vn 0.0363 0.0000 -0.9993
vn 0.1205 0.0000 -0.9927
vn 0.2292 0.0000 -0.9734
vn 0.3465 0.0000 -0.9381
vn 0.4575 0.0000 -0.8892
vn 0.5527 0.0000 -0.8334
vn 0.5949 0.0000 -0.8038
vn 0.7946 0.0000 -0.6071
vn 0.8646 0.0000 -0.5025
vn 0.9639 0.0000 -0.2663
vn 0.9999 0.0000 -0.0123
vn 0.9737 0.0000 0.2279
vn 0.8995 0.0000 0.4369
vn 0.7903 0.0000 0.6127
vn 0.7245 0.0000 0.6893
vn 0.5908 0.0000 0.8069
vn 0.5445 0.0000 0.8388
vn 0.4416 0.0000 0.8972
vn 0.3255 0.0000 0.9456
vn 0.2066 0.0000 0.9784
vn 0.0998 0.0000 0.9950
vn 0.0203 0.0000 0.9998
vn -0.0108 0.0000 0.9999
vn 1.0000 0.0000 0.0094
vn 0.9298 0.0000 -0.3680
vn 0.9139 0.0000 -0.4059
vn 0.8626 0.0000 -0.5059
vn 0.7750 0.0000 -0.6320
vn 0.6652 0.0000 -0.7467
vn 0.5558 0.0000 -0.8313
vn 0.4617 0.0000 -0.8871
vn 0.4192 0.0000 -0.9079
vn 0.0042 0.0000 -1.0000
vn -0.2323 0.0000 -0.9726
vn -0.2465 0.0000 -0.9691
vn -0.3031 0.0000 -0.9530
vn -0.4099 0.0000 -0.9121
vn -0.5466 0.0000 -0.8374
vn -0.6823 0.0000 -0.7310
vn -0.7921 0.0000 -0.6104
vn -0.8364 0.0000 -0.5481
vn -1.0000 0.0000 -0.0095
vn 0.0000 -1.0000 -0.0000
vn 0.0000 1.0000 -0.0000
# 87 vertex normals

vt 0.3229 0.0038 -0.5000
vt 0.3235 0.0200 -0.5000
vt 0.3235 0.0200 0.5000
vt 0.3229 0.0038 0.5000
vt 0.3253 0.0359 -0.5000
vt 0.3253 0.0359 0.5000
vt 0.3298 0.0513 -0.5000
vt 0.3298 0.0513 0.5000
vt 0.3381 0.0659 -0.5000
vt 0.3381 0.0659 0.5000
vt 0.3517 0.0796 -0.5000
vt 0.3517 0.0796 0.5000
vt 0.3716 0.0921 -0.5000
vt 0.3716 0.0921 0.5000
vt 0.3994 0.1031 -0.5000
vt 0.3994 0.1031 0.5000
vt 0.4303 0.1112 -0.5000
vt 0.4303 0.1112 0.5000
vt 0.4589 0.1156 -0.5000
vt 0.4589 0.1156 0.5000
vt 0.4857 0.1170 -0.5000
vt 0.4857 0.1170 0.5000
vt 0.5110 0.1159 -0.5000
vt 0.5110 0.1159 0.5000
vt 0.5353 0.1130 -0.5000
vt 0.5353 0.1130 0.5000
vt 0.5587 0.1089 -0.5000
vt 0.5587 0.1089 0.5000
vt 0.5819 0.1041 -0.5000
vt 0.5819 0.1041 0.5000
vt 0.6017 0.0941 -0.5000
vt 0.6017 0.0941 0.5000
vt 0.6203 0.0836 -0.5000
vt 0.6203 0.0836 0.5000
vt 0.6365 0.0719 -0.5000
vt 0.6365 0.0719 0.5000
vt 0.6490 0.0585 -0.5000
vt 0.6490 0.0585 0.5000
vt 0.6567 0.0429 -0.5000
vt 0.6567 0.0429 0.5000
vt 0.6582 0.0244 -0.5000
vt 0.6582 0.0244 0.5000
vt 0.6525 0.0025 -0.5000
vt 0.6525 0.0025 0.5000
vt 0.8954 0.0020 -0.5000
vt 0.8954 0.0020 0.5000
vt 0.9168 0.0052 -0.5000
vt 0.9168 0.0052 0.5000
vt 0.9372 0.0093 -0.5000
vt 0.9372 0.0093 0.5000
vt 0.9558 0.0152 -0.5000
vt 0.9558 0.0152 0.5000
vt 0.9716 0.0239 -0.5000
vt 0.9716 0.0239 0.5000
vt 0.9837 0.0363 -0.5000
vt 0.9837 0.0363 0.5000
vt 0.9910 0.0533 -0.5000
vt 0.9910 0.0533 0.5000
vt 0.9927 0.0759 -0.5000
vt 0.9927 0.0759 0.5000
vt 0.9980 0.9379 -0.5000
vt 0.9980 0.9379 0.5000
vt 0.9907 0.9477 -0.5000
vt 0.9907 0.9477 0.5000
vt 0.9825 0.9572 -0.5000
vt 0.9825 0.9572 0.5000
vt 0.9725 0.9660 -0.5000
vt 0.9725 0.9660 0.5000
vt 0.9598 0.9737 -0.5000
vt 0.9598 0.9737 0.5000
vt 0.9435 0.9799 -0.5000
vt 0.9435 0.9799 0.5000
vt 0.9228 0.9842 -0.5000
vt 0.9228 0.9842 0.5000
vt 0.8967 0.9864 -0.5000
vt 0.8967 0.9864 0.5000
vt 0.6677 0.9872 -0.5000
vt 0.6677 0.9872 0.5000
vt 0.6677 0.9767 -0.5000
vt 0.6677 0.9767 0.5000
vt 0.6661 0.9659 -0.5000
vt 0.6661 0.9659 0.5000
vt 0.6621 0.9547 -0.5000
vt 0.6621 0.9547 0.5000
vt 0.6548 0.9427 -0.5000
vt 0.6548 0.9427 0.5000
vt 0.6432 0.9300 -0.5000
vt 0.6432 0.9300 0.5000
vt 0.6265 0.9162 -0.5000
vt 0.6265 0.9162 0.5000
vt 0.6037 0.9012 -0.5000
vt 0.6037 0.9012 0.5000
vt 0.5679 0.8878 -0.5000
vt 0.5679 0.8878 0.5000
vt 0.5311 0.8802 -0.5000
vt 0.5311 0.8802 0.5000
vt 0.4945 0.8777 -0.5000
vt 0.4945 0.8777 0.5000
vt 0.4592 0.8797 -0.5000
vt 0.4592 0.8797 0.5000
vt 0.4263 0.8855 -0.5000
vt 0.4263 0.8855 0.5000
vt 0.3969 0.8944 -0.5000
vt 0.3969 0.8944 0.5000
vt 0.3722 0.9059 -0.5000
vt 0.3722 0.9059 0.5000
vt 0.3501 0.9207 -0.5000
vt 0.3501 0.9207 0.5000
vt 0.3341 0.9343 -0.5000
vt 0.3341 0.9343 0.5000
vt 0.3233 0.9469 -0.5000
vt 0.3233 0.9469 0.5000
vt 0.3168 0.9586 -0.5000
vt 0.3168 0.9586 0.5000
vt 0.3134 0.9695 -0.5000
vt 0.3134 0.9695 0.5000
vt 0.3123 0.9797 -0.5000
vt 0.3123 0.9797 0.5000
vt 0.3126 0.9894 -0.5000
vt 0.3126 0.9894 0.5000
vt 0.1068 0.9903 -0.5000
vt 0.1068 0.9903 0.5000
vt 0.0938 0.9878 -0.5000
vt 0.0938 0.9878 0.5000
vt 0.0807 0.9846 -0.5000
vt 0.0807 0.9846 0.5000
vt 0.0673 0.9802 -0.5000
vt 0.0673 0.9802 0.5000
vt 0.0537 0.9737 -0.5000
vt 0.0537 0.9737 0.5000
vt 0.0395 0.9647 -0.5000
vt 0.0395 0.9647 0.5000
vt 0.0249 0.9524 -0.5000
vt 0.0249 0.9524 0.5000
vt 0.0095 0.9362 -0.5000
vt 0.0095 0.9362 0.5000
vt 0.0020 0.0646 -0.5000
vt 0.0020 0.0646 0.5000
vt 0.0065 0.0554 -0.5000
vt 0.0065 0.0554 0.5000
vt 0.0115 0.0464 -0.5000
vt 0.0115 0.0464 0.5000
vt 0.0181 0.0376 -0.5000
vt 0.0181 0.0376 0.5000
vt 0.0274 0.0292 -0.5000
vt 0.0274 0.0292 0.5000
vt 0.0407 0.0209 -0.5000
vt 0.0407 0.0209 0.5000
vt 0.0590 0.0128 -0.5000
vt 0.0590 0.0128 0.5000
vt 0.0836 0.0050 -0.5000
vt 0.0836 0.0050 0.5000
# 152 texture coords

g Line009
usemtl Material__241
s 1
f 1/1/1 2/2/2 3/3/2 4/4/1 
s 3
f 2/2/2 5/5/3 6/6/3 3/3/2 
s 2
f 5/5/3 7/7/4 8/8/4 6/6/3 
f 7/7/4 9/9/5 10/10/5 8/8/4 
f 9/9/5 11/11/6 12/12/6 10/10/5 
f 11/11/6 13/13/7 14/14/7 12/12/6 
f 13/13/7 15/15/8 16/16/8 14/14/7 
f 15/15/8 17/17/9 18/18/9 16/16/8 
f 17/17/9 19/19/10 20/20/10 18/18/9 
f 19/19/10 21/21/11 22/22/11 20/20/10 
f 21/21/11 23/23/12 24/24/12 22/22/11 
f 23/23/12 25/25/13 26/26/13 24/24/12 
f 25/25/13 27/27/14 28/28/14 26/26/13 
f 27/27/14 29/29/15 30/30/15 28/28/14 
s 4
f 29/29/16 31/31/17 32/32/17 30/30/16 
f 31/31/17 33/33/18 34/34/18 32/32/17 
f 33/33/18 35/35/19 36/36/19 34/34/18 
f 35/35/19 37/37/20 38/38/20 36/36/19 
f 37/37/20 39/39/21 40/40/21 38/38/20 
f 39/39/21 41/41/22 42/42/22 40/40/21 
f 41/41/22 43/43/23 44/44/23 42/42/22 
s 2
f 43/43/24 45/45/24 46/46/24 44/44/24 
s 4
f 45/45/25 47/47/26 48/48/26 46/46/25 
f 47/47/26 49/49/27 50/50/27 48/48/26 
f 49/49/27 51/51/28 52/52/28 50/50/27 
f 51/51/28 53/53/29 54/54/29 52/52/28 
f 53/53/29 55/55/30 56/56/30 54/54/29 
f 55/55/30 57/57/31 58/58/31 56/56/30 
f 57/57/31 59/59/32 60/60/32 58/58/31 
f 59/59/32 61/61/33 62/62/33 60/60/32 
s 2
f 61/61/34 63/63/35 64/64/35 62/62/34 
f 63/63/35 65/65/36 66/66/36 64/64/35 
f 65/65/36 67/67/37 68/68/37 66/66/36 
f 67/67/37 69/69/38 70/70/38 68/68/37 
f 69/69/38 71/71/39 72/72/39 70/70/38 
f 71/71/39 73/73/40 74/74/40 72/72/39 
f 73/73/40 75/75/41 76/76/41 74/74/40 
f 75/75/41 77/77/42 78/78/42 76/76/41 
s 4
f 77/77/43 79/79/44 80/80/44 78/78/43 
f 79/79/44 81/81/45 82/82/45 80/80/44 
f 81/81/45 83/83/46 84/84/46 82/82/45 
f 83/83/46 85/85/47 86/86/47 84/84/46 
f 85/85/47 87/87/48 88/88/48 86/86/47 
f 87/87/48 89/89/49 90/90/49 88/88/48 
f 89/89/49 91/91/50 92/92/50 90/90/49 
s 2
f 91/91/51 93/93/52 94/94/52 92/92/51 
f 93/93/52 95/95/53 96/96/53 94/94/52 
f 95/95/53 97/97/54 98/98/54 96/96/53 
f 97/97/54 99/99/55 100/100/55 98/98/54 
f 99/99/55 101/101/56 102/102/56 100/100/55 
f 101/101/56 103/103/57 104/104/57 102/102/56 
f 103/103/57 105/105/58 106/106/58 104/104/57 
s 4
f 105/105/59 107/107/60 108/108/60 106/106/59 
f 107/107/60 109/109/61 110/110/61 108/108/60 
f 109/109/61 111/111/62 112/112/62 110/110/61 
f 111/111/62 113/113/63 114/114/63 112/112/62 
f 113/113/63 115/115/64 116/116/64 114/114/63 
f 115/115/64 117/117/65 118/118/65 116/116/64 
f 117/117/65 119/119/66 120/120/66 118/118/65 
s 2
f 119/119/67 121/121/67 122/122/67 120/120/67 
s 4
f 121/121/68 123/123/69 124/124/69 122/122/68 
f 123/123/69 125/125/70 126/126/70 124/124/69 
f 125/125/70 127/127/71 128/128/71 126/126/70 
f 127/127/71 129/129/72 130/130/72 128/128/71 
f 129/129/72 131/131/73 132/132/73 130/130/72 
f 131/131/73 133/133/74 134/134/74 132/132/73 
f 133/133/74 135/135/75 136/136/75 134/134/74 
s 2
f 135/135/76 137/137/76 138/138/76 136/136/76 
s 4
f 137/137/77 139/139/78 140/140/78 138/138/77 
f 139/139/78 141/141/79 142/142/79 140/140/78 
f 141/141/79 143/143/80 144/144/80 142/142/79 
f 143/143/80 145/145/81 146/146/81 144/144/80 
f 145/145/81 147/147/82 148/148/82 146/146/81 
f 147/147/82 149/149/83 150/150/83 148/148/82 
f 149/149/83 151/151/84 152/152/84 150/150/83 
s 2
f 151/151/85 1/1/85 4/4/85 152/152/85 
s 16
f 41/41/86 39/39/86 45/45/86 43/43/86 
f 75/75/86 81/81/86 79/79/86 77/77/86 
f 117/117/86 115/115/86 121/121/86 119/119/86 
f 151/151/86 5/5/86 2/2/86 1/1/86 
f 75/75/86 85/85/86 83/83/86 81/81/86 
f 113/113/86 111/111/86 121/121/86 115/115/86 
f 151/151/86 149/149/86 7/7/86 5/5/86 
f 37/37/86 47/47/86 45/45/86 39/39/86 
f 149/149/86 147/147/86 9/9/86 7/7/86 
f 145/145/86 143/143/86 9/9/86 147/147/86 
f 141/141/86 139/139/86 9/9/86 143/143/86 
f 137/137/86 135/135/86 9/9/86 139/139/86 
f 135/135/86 13/13/86 11/11/86 9/9/86 
f 135/135/86 17/17/86 15/15/86 13/13/86 
f 135/135/86 21/21/86 19/19/86 17/17/86 
f 135/135/86 25/25/86 23/23/86 21/21/86 
f 135/135/86 29/29/86 27/27/86 25/25/86 
f 75/75/86 61/61/86 87/87/86 85/85/86 
f 109/109/86 123/123/86 121/121/86 111/111/86 
f 109/109/86 127/127/86 125/125/86 123/123/86 
f 109/109/86 131/131/86 129/129/86 127/127/86 
f 109/109/86 135/135/86 133/133/86 131/131/86 
f 109/109/86 107/107/86 29/29/86 135/135/86 
f 105/105/86 103/103/86 29/29/86 107/107/86 
f 101/101/86 99/99/86 29/29/86 103/103/86 
f 97/97/86 95/95/86 29/29/86 99/99/86 
f 93/93/86 91/91/86 29/29/86 95/95/86 
f 91/91/86 61/61/86 31/31/86 29/29/86 
f 37/37/86 51/51/86 49/49/86 47/47/86 
f 37/37/86 55/55/86 53/53/86 51/51/86 
f 37/37/86 59/59/86 57/57/86 55/55/86 
f 37/37/86 35/35/86 61/61/86 59/59/86 
f 33/33/86 31/31/86 61/61/86 35/35/86 
f 89/89/86 87/87/86 61/61/86 91/91/86 
f 75/75/86 65/65/86 63/63/86 61/61/86 
f 73/73/86 67/67/86 65/65/86 75/75/86 
f 71/71/86 69/69/86 67/67/86 73/73/86 
f 42/42/87 44/44/87 46/46/87 40/40/87 
f 76/76/87 78/78/87 80/80/87 82/82/87 
f 118/118/87 120/120/87 122/122/87 116/116/87 
f 152/152/87 4/4/87 3/3/87 6/6/87 
f 76/76/87 82/82/87 84/84/87 86/86/87 
f 114/114/87 116/116/87 122/122/87 112/112/87 
f 152/152/87 6/6/87 8/8/87 150/150/87 
f 38/38/87 40/40/87 46/46/87 48/48/87 
f 150/150/87 8/8/87 10/10/87 148/148/87 
f 146/146/87 148/148/87 10/10/87 144/144/87 
f 142/142/87 144/144/87 10/10/87 140/140/87 
f 138/138/87 140/140/87 10/10/87 136/136/87 
f 136/136/87 10/10/87 12/12/87 14/14/87 
f 136/136/87 14/14/87 16/16/87 18/18/87 
f 136/136/87 18/18/87 20/20/87 22/22/87 
f 136/136/87 22/22/87 24/24/87 26/26/87 
f 136/136/87 26/26/87 28/28/87 30/30/87 
f 76/76/87 86/86/87 88/88/87 62/62/87 
f 110/110/87 112/112/87 122/122/87 124/124/87 
f 110/110/87 124/124/87 126/126/87 128/128/87 
f 110/110/87 128/128/87 130/130/87 132/132/87 
f 110/110/87 132/132/87 134/134/87 136/136/87 
f 110/110/87 136/136/87 30/30/87 108/108/87 
f 106/106/87 108/108/87 30/30/87 104/104/87 
f 102/102/87 104/104/87 30/30/87 100/100/87 
f 98/98/87 100/100/87 30/30/87 96/96/87 
f 94/94/87 96/96/87 30/30/87 92/92/87 
f 92/92/87 30/30/87 32/32/87 62/62/87 
f 38/38/87 48/48/87 50/50/87 52/52/87 
f 38/38/87 52/52/87 54/54/87 56/56/87 
f 38/38/87 56/56/87 58/58/87 60/60/87 
f 38/38/87 60/60/87 62/62/87 36/36/87 
f 34/34/87 36/36/87 62/62/87 32/32/87 
f 90/90/87 92/92/87 62/62/87 88/88/87 
f 76/76/87 62/62/87 64/64/87 66/66/87 
f 74/74/87 76/76/87 66/66/87 68/68/87 
f 72/72/87 74/74/87 68/68/87 70/70/87 
# 150 polygons

