# 3ds Max Wavefront OBJ Exporter v0.97b - (c)2007 guruware
# File Created: 18.12.2015 09:38:52

#
# object Line004
#

v  -1.3061 0.0000 -3.9298
v  -3.7171 0.0000 -1.5035
v  -3.7171 0.0700 -1.5035
v  -1.3061 0.0700 -3.9298
v  0.8975 0.0000 3.0266
v  0.8975 0.0700 3.0266
v  1.9571 0.0000 3.0650
v  1.9571 0.0700 3.0650
v  3.8843 0.0000 1.2069
v  3.8843 0.0700 1.2069
# 10 vertices

vn -0.7093 0.0000 -0.7049
vn -0.7005 0.0000 0.7136
vn -0.0362 0.0000 0.9993
vn 0.6941 0.0000 0.7199
vn 0.7034 0.0000 -0.7108
vn 0.0000 -1.0000 -0.0000
vn 0.0000 1.0000 -0.0000
# 7 vertex normals

vt 0.9868 0.0342 0.5000
vt 0.9777 0.9571 0.5000
vt 0.9991 0.9974 1.5000
vt 0.9988 0.0052 1.5000
vt 0.1139 0.9661 0.5000
vt 0.1063 0.9936 1.5000
vt 0.0235 0.7844 0.5000
vt 0.0033 0.7863 1.5000
vt 0.0129 0.0257 0.5000
vt 0.0008 0.0007 1.5000
# 10 texture coords

g Line004
s 1
f 1/1/1 2/2/1 3/3/1 4/4/1 
s 4
f 2/2/2 5/5/2 6/6/2 3/3/2 
s 2
f 5/5/3 7/7/3 8/8/3 6/6/3 
s 4
f 7/7/4 9/9/4 10/10/4 8/8/4 
s 2
f 9/9/5 1/1/5 4/4/5 10/10/5 
s 16
f 7/7/6 5/5/6 1/1/6 9/9/6 
f 2/2/6 1/1/6 5/5/6 
f 8/8/7 10/10/7 4/4/7 6/6/7 
f 3/3/7 6/6/7 4/4/7 
# 7 polygons - 2 triangles

