# 3ds Max Wavefront OBJ Exporter v0.97b - (c)2007 guruware
# File Created: 17.12.2015 21:03:41

#
# object foyer
#

v  -22.0748 0.0700 12.7056
v  -22.0854 0.0700 12.2342
v  -22.0854 0.0000 12.2342
v  -22.0748 0.0000 12.7056
v  -21.7324 0.0700 13.0459
v  -21.7324 0.0000 13.0459
v  -21.2526 0.0700 13.0416
v  -21.2526 0.0000 13.0416
v  -20.9060 0.0700 12.6865
v  -20.9060 0.0000 12.6865
v  -20.9186 0.0700 12.2131
v  -20.9186 0.0000 12.2131
v  -21.2632 0.0700 11.8728
v  -21.2632 0.0000 11.8728
v  -21.7240 0.0700 11.8770
v  -21.7240 0.0000 11.8770
# 16 vertices

vn -0.9997 0.0000 0.0224
vn -0.7049 0.0000 0.7093
vn 0.0088 0.0000 1.0000
vn 0.7156 0.0000 0.6985
vn 0.9996 0.0000 -0.0268
vn 0.7027 0.0000 -0.7115
vn -0.0092 0.0000 -1.0000
vn -0.7029 0.0000 -0.7113
vn 0.0000 -1.0000 -0.0000
vn 0.0000 1.0000 -0.0000
# 10 vertex normals

vt 0.6921 0.0617 0.0000
vt 0.3236 0.0617 0.0000
vt 0.3236 0.0042 0.0000
vt 0.6921 0.0042 0.0000
vt 0.0041 0.2866 0.0000
vt 0.2958 0.0038 0.0000
vt 0.6944 0.0036 0.0000
vt 0.9922 0.2819 0.0000
vt 0.9983 0.7059 0.0000
vt 0.6938 0.9989 0.0000
vt 0.2910 0.9960 0.0000
vt 0.0036 0.6805 0.0000
vt 0.0037 0.2858 0.0000
vt 0.2941 0.0038 0.0000
vt 0.6977 0.0029 0.0000
vt 0.9898 0.2800 0.0000
vt 0.9986 0.7046 0.0000
vt 0.6931 0.9988 0.0000
vt 0.2904 0.9975 0.0000
vt 0.0029 0.6807 0.0000
# 20 texture coords

g foyer
s 1
f 1/1/1 2/2/1 3/3/1 4/4/1 
s 4
f 5/1/2 1/2/2 4/3/2 6/4/2 
s 2
f 7/1/3 5/2/3 6/3/3 8/4/3 
s 4
f 9/1/4 7/2/4 8/3/4 10/4/4 
s 2
f 11/1/5 9/2/5 10/3/5 12/4/5 
s 4
f 13/1/6 11/2/6 12/3/6 14/4/6 
s 2
f 15/1/7 13/2/7 14/3/7 16/4/7 
s 4
f 2/1/8 15/2/8 16/3/8 3/4/8 
s 16
f 16/5/9 14/6/9 12/7/9 10/8/9 
f 16/5/9 10/8/9 8/9/9 6/10/9 
f 16/5/9 6/10/9 4/11/9 3/12/9 
f 15/13/10 2/14/10 1/15/10 5/16/10 
f 15/13/10 5/16/10 7/17/10 9/18/10 
f 15/13/10 9/18/10 11/19/10 13/20/10 
# 14 polygons

