# 3ds Max Wavefront OBJ Exporter v0.97b - (c)2007 guruware
# File Created: 17.12.2015 19:57:38

#
# object Line002
#

v  -1.1076 0.0700 -2.3424
v  -1.1076 0.0700 -2.6518
v  -1.1076 0.0000 -2.6518
v  -1.1076 0.0000 -2.3424
v  -0.9284 0.0700 -2.3478
v  -0.9284 0.0000 -2.3478
v  -0.9175 0.0700 -2.0220
v  -0.9175 0.0000 -2.0220
v  -1.1130 0.0700 -2.0112
v  -1.1130 0.0000 -2.0112
v  -1.1347 0.0700 -1.7288
v  -1.1347 0.0000 -1.7288
v  -0.9230 0.0700 -1.7180
v  -0.9230 0.0000 -1.7180
v  -0.9230 0.0700 -1.4140
v  -0.9230 0.0000 -1.4140
v  -1.1184 0.0700 -1.3977
v  -1.1184 0.0000 -1.3977
v  -1.1293 0.0700 -1.1153
v  -1.1293 0.0000 -1.1153
v  -0.9393 0.0700 -1.1153
v  -0.9393 0.0000 -1.1153
v  -0.9175 0.0700 -0.7679
v  -0.9175 0.0000 -0.7679
v  -1.1184 0.0700 -0.7787
v  -1.1184 0.0000 -0.7787
v  -1.1293 0.0700 -0.4801
v  -1.1293 0.0000 -0.4801
v  -0.9501 0.0700 -0.4855
v  -0.9501 0.0000 -0.4855
v  -0.9338 0.0700 -0.1652
v  -0.9338 0.0000 -0.1652
v  -1.1293 0.0700 -0.1544
v  -1.1293 0.0000 -0.1544
v  -1.1456 0.0700 0.1388
v  -1.1456 0.0000 0.1388
v  -0.9447 0.0700 0.1442
v  -0.9447 0.0000 0.1442
v  -0.9393 0.0700 0.4591
v  -0.9393 0.0000 0.4591
v  -1.1401 0.0700 0.4646
v  -1.1401 0.0000 0.4646
v  -1.1510 0.0700 0.7686
v  -1.1510 0.0000 0.7686
v  -0.9501 0.0700 0.7740
v  -0.9501 0.0000 0.7740
v  -0.9393 0.0700 1.0889
v  -0.9393 0.0000 1.0889
v  -1.1510 0.0700 1.0998
v  -1.1510 0.0000 1.0998
v  -1.1564 0.0700 1.4147
v  -1.1564 0.0000 1.4147
v  -0.9393 0.0700 1.3984
v  -0.9393 0.0000 1.3984
v  -0.9338 0.0700 1.7187
v  -0.9338 0.0000 1.7187
v  -1.1401 0.0700 1.7242
v  -1.1401 0.0000 1.7242
v  -1.1456 0.0700 2.0282
v  -1.1456 0.0000 2.0282
v  -0.9555 0.0700 2.0282
v  -0.9555 0.0000 2.0282
v  -0.9393 0.0700 2.3485
v  -0.9393 0.0000 2.3485
v  -1.1456 0.0700 2.3540
v  -1.1456 0.0000 2.3540
v  -1.1564 0.0700 2.6688
v  -1.1564 0.0000 2.6688
v  -0.4398 0.0700 2.6634
v  -0.4398 0.0000 2.6634
v  -0.2117 0.0700 2.4517
v  -0.2117 0.0000 2.4517
v  5.5541 0.0700 2.4897
v  5.5541 0.0000 2.4897
v  5.9613 0.0700 2.8969
v  5.9613 0.0000 2.8969
v  6.8246 0.0700 2.9023
v  6.8246 0.0000 2.9023
v  6.8191 0.0700 -2.8473
v  6.8191 0.0000 -2.8473
v  5.9342 0.0700 -2.8690
v  5.9342 0.0000 -2.8690
v  5.5596 0.0700 -2.5052
v  5.5596 0.0000 -2.5052
v  -0.1792 0.0700 -2.4510
v  -0.1792 0.0000 -2.4510
v  -0.4289 0.0700 -2.6573
v  -0.4289 0.0000 -2.6573
# 88 vertices

vn -1.0000 0.0000 -0.0000
vn 0.0303 0.0000 0.9995
vn -0.9994 0.0000 0.0333
vn -0.0555 0.0000 -0.9985
vn -0.9971 0.0000 -0.0767
vn -0.0512 0.0000 0.9987
vn -0.0831 0.0000 -0.9965
vn -0.9993 0.0000 -0.0384
vn 0.0000 0.0000 1.0000
vn -0.9981 0.0000 0.0624
vn 0.0540 0.0000 -0.9985
vn -0.9993 0.0000 -0.0363
vn -0.9987 0.0000 0.0508
vn -0.9985 0.0000 -0.0555
vn -0.0270 0.0000 0.9996
vn -0.9999 0.0000 0.0172
vn -0.0270 0.0000 -0.9996
vn -0.9994 0.0000 -0.0357
vn -0.9994 0.0000 0.0345
vn -0.0512 0.0000 -0.9987
vn -0.9999 0.0000 -0.0172
vn 0.0748 0.0000 0.9972
vn -0.9999 0.0000 0.0169
vn -0.0263 0.0000 -0.9997
vn -0.9998 0.0000 -0.0179
vn -0.9994 0.0000 -0.0345
vn 0.0076 0.0000 1.0000
vn 0.6805 0.0000 0.7328
vn -0.0066 0.0000 1.0000
vn -0.7071 0.0000 0.7071
vn -0.0063 0.0000 1.0000
vn 1.0000 0.0000 -0.0009
vn 0.0245 0.0000 -0.9997
vn -0.6966 0.0000 -0.7174
vn -0.0095 0.0000 -1.0000
vn 0.6369 0.0000 -0.7710
vn -0.0080 0.0000 -1.0000
vn 0.0000 -1.0000 -0.0000
vn 0.0000 1.0000 -0.0000
# 39 vertex normals

vt 0.9087 1.0000 0.0000
vt 0.9624 1.0000 0.0000
vt 0.9624 -0.0000 0.0000
vt 0.9087 -0.0000 0.0000
vt 0.0286 1.0000 0.0000
vt 0.0061 1.0000 0.0000
vt 0.0061 -0.0000 0.0000
vt 0.0286 -0.0000 0.0000
vt 0.8532 1.0000 0.0000
vt 0.9097 1.0000 0.0000
vt 0.9097 -0.0000 0.0000
vt 0.8532 -0.0000 0.0000
vt 0.0054 1.0000 0.0000
vt 0.0299 1.0000 0.0000
vt 0.0299 -0.0000 0.0000
vt 0.0054 -0.0000 0.0000
vt 0.8024 1.0000 0.0000
vt 0.8514 1.0000 0.0000
vt 0.8514 -0.0000 0.0000
vt 0.8024 -0.0000 0.0000
vt 0.0293 1.0000 0.0000
vt 0.0027 1.0000 0.0000
vt 0.0027 -0.0000 0.0000
vt 0.0293 -0.0000 0.0000
vt 0.7479 1.0000 0.0000
vt 0.8006 1.0000 0.0000
vt 0.8006 -0.0000 0.0000
vt 0.7479 -0.0000 0.0000
vt 0.0048 1.0000 0.0000
vt 0.0048 -0.0000 0.0000
vt 0.9109 0.9932 0.0000
vt 0.9598 0.9932 0.0000
vt 0.9598 -0.0068 0.0000
vt 0.9109 -0.0068 0.0000
vt 0.0272 1.0000 0.0000
vt 0.0034 1.0000 0.0000
vt 0.0034 -0.0000 0.0000
vt 0.0272 -0.0000 0.0000
vt 0.6359 1.0000 0.0000
vt 0.6961 1.0000 0.0000
vt 0.6961 -0.0000 0.0000
vt 0.6359 -0.0000 0.0000
vt 0.9031 1.0034 0.0000
vt 0.9549 1.0034 0.0000
vt 0.9549 0.0034 0.0000
vt 0.9031 0.0034 0.0000
vt 0.0259 1.0000 0.0000
vt 0.0259 -0.0000 0.0000
vt 0.5315 1.0000 0.0000
vt 0.5870 1.0000 0.0000
vt 0.5870 -0.0000 0.0000
vt 0.5315 -0.0000 0.0000
vt 0.0279 1.0000 0.0000
vt 0.0279 -0.0000 0.0000
vt 0.4788 1.0000 0.0000
vt 0.5296 1.0000 0.0000
vt 0.5296 -0.0000 0.0000
vt 0.4788 -0.0000 0.0000
vt 0.0265 1.0000 0.0000
vt 0.0014 1.0000 0.0000
vt 0.0014 -0.0000 0.0000
vt 0.0265 -0.0000 0.0000
vt 0.4233 1.0000 0.0000
vt 0.4779 1.0000 0.0000
vt 0.4779 -0.0000 0.0000
vt 0.4233 -0.0000 0.0000
vt 0.0020 1.0000 0.0000
vt 0.0020 -0.0000 0.0000
vt 0.3697 1.0000 0.0000
vt 0.4224 1.0000 0.0000
vt 0.4224 -0.0000 0.0000
vt 0.3697 -0.0000 0.0000
vt 0.0007 1.0000 0.0000
vt 0.0007 -0.0000 0.0000
vt 0.3142 1.0000 0.0000
vt 0.3688 1.0000 0.0000
vt 0.3688 -0.0000 0.0000
vt 0.3142 -0.0000 0.0000
vt 0.2578 1.0000 0.0000
vt 0.3123 1.0000 0.0000
vt 0.3123 -0.0000 0.0000
vt 0.2578 -0.0000 0.0000
vt 0.0000 1.0000 0.0000
vt 0.0000 -0.0000 0.0000
vt 0.2051 1.0000 0.0000
vt 0.2606 1.0000 0.0000
vt 0.2606 -0.0000 0.0000
vt 0.2051 -0.0000 0.0000
vt 0.1515 1.0000 0.0000
vt 0.2041 1.0000 0.0000
vt 0.2041 -0.0000 0.0000
vt 0.1515 -0.0000 0.0000
vt 0.0252 1.0000 0.0000
vt 0.0252 -0.0000 0.0000
vt 0.0960 1.0000 0.0000
vt 0.0960 -0.0000 0.0000
vt 0.0405 1.0000 0.0000
vt 0.0950 1.0000 0.0000
vt 0.0950 -0.0000 0.0000
vt 0.0405 -0.0000 0.0000
vt -0.0128 1.0339 0.0000
vt 0.9379 1.0397 0.0000
vt 0.9379 0.0397 0.0000
vt -0.0128 0.0339 0.0000
vt -0.2885 1.0088 0.0000
vt -0.2885 0.0088 0.0000
vt 1.4745 1.0146 0.0000
vt 1.4745 0.0146 0.0000
vt 0.8918 1.0000 0.0000
vt 0.8408 1.0000 0.0000
vt 0.8408 -0.0000 0.0000
vt 0.8918 -0.0000 0.0000
vt 1.3639 0.0394 1.5000
vt 0.8879 -0.0040 1.5000
vt 1.2469 -0.0019 0.5000
vt 1.7229 0.0414 0.5000
vt 0.9918 0.9867 0.0000
vt -0.0044 0.9867 0.0000
vt -0.0044 -0.0133 0.0000
vt 0.9918 -0.0133 0.0000
vt 0.8845 0.9951 1.5000
vt 1.3632 1.0357 1.5000
vt 1.7223 1.0377 0.5000
vt 1.2435 0.9971 0.5000
vt 0.8375 0.9321 1.5000
vt 1.1966 0.9341 0.5000
vt 0.1407 0.9972 0.0000
vt 0.9375 1.0291 0.0000
vt 0.9375 0.0291 0.0000
vt 0.1407 -0.0028 0.0000
vt 0.0337 0.9785 0.0000
vt 0.0337 -0.0215 0.0000
vt 0.0264 1.0104 0.0000
vt 0.0264 0.0104 0.0000
vt 0.0207 0.8485 0.0000
vt -0.0031 0.8485 0.0000
vt -0.0024 0.7959 0.0000
vt 0.0235 0.7949 0.0000
vt 0.0228 0.7394 0.0000
vt -0.0044 0.7422 0.0000
vt -0.0038 0.6877 0.0000
vt 0.0228 0.6858 0.0000
vt 0.0214 0.6312 0.0000
vt -0.0038 0.6303 0.0000
vt -0.0024 0.5776 0.0000
vt 0.0228 0.5767 0.0000
vt 0.0221 0.5221 0.0000
vt -0.0031 0.5212 0.0000
vt -0.0010 0.4704 0.0000
vt 0.0235 0.4685 0.0000
vt 0.0214 0.4130 0.0000
vt -0.0010 0.4139 0.0000
vt 0.0003 0.3622 0.0000
vt 0.0255 0.3641 0.0000
vt 0.0228 0.3039 0.0000
vt -0.0010 0.3039 0.0000
vt 0.0003 0.2549 0.0000
vt 0.0248 0.2521 0.0000
vt 0.0248 0.1994 0.0000
vt -0.0017 0.1976 0.0000
vt 0.0010 0.1486 0.0000
vt 0.0255 0.1468 0.0000
vt 0.0241 0.0903 0.0000
vt 0.0017 0.0913 0.0000
vt 0.0017 0.0376 0.0000
vt 0.0867 0.0367 0.0000
vt 0.1180 0.0724 0.0000
vt 0.0228 0.9040 0.0000
vt 0.9949 0.0038 0.0000
vt 0.9956 1.0000 0.0000
vt 0.8874 0.9991 0.0000
vt 0.8364 0.9285 0.0000
vt 0.8840 0.0000 0.0000
vt 0.8371 0.0630 0.0000
vt 0.1139 0.9219 0.0000
vt 0.0854 0.9586 0.0000
vt -0.0031 0.9050 0.0000
vt -0.0044 0.9595 0.0000
vt 0.0024 0.0890 0.0000
vt 0.0010 0.0344 0.0000
vt 0.0908 0.0353 0.0000
vt 0.0282 0.0899 0.0000
vt 0.8929 -0.0051 0.0000
vt 1.0010 -0.0061 0.0000
vt 1.0004 0.9902 0.0000
vt 0.8418 0.0654 0.0000
vt 0.8895 0.9939 0.0000
vt 0.8425 0.9309 0.0000
vt 0.1235 0.9215 0.0000
vt 0.1194 0.0720 0.0000
vt 0.0072 0.9563 0.0000
vt 0.0072 0.9027 0.0000
vt 0.0296 0.9036 0.0000
vt 0.0922 0.9573 0.0000
vt 0.0310 0.8472 0.0000
vt 0.0065 0.8453 0.0000
vt 0.0038 0.7964 0.0000
vt 0.0303 0.7945 0.0000
vt 0.0303 0.7418 0.0000
vt 0.0058 0.7390 0.0000
vt 0.0044 0.6901 0.0000
vt 0.0282 0.6901 0.0000
vt 0.0310 0.6299 0.0000
vt 0.0058 0.6318 0.0000
vt 0.0044 0.5800 0.0000
vt 0.0269 0.5810 0.0000
vt 0.0289 0.5255 0.0000
vt 0.0044 0.5236 0.0000
vt 0.0024 0.4728 0.0000
vt 0.0276 0.4718 0.0000
vt 0.0282 0.4173 0.0000
vt 0.0031 0.4163 0.0000
vt 0.0017 0.3637 0.0000
vt 0.0269 0.3627 0.0000
vt 0.0282 0.3082 0.0000
vt 0.0017 0.3063 0.0000
vt 0.0010 0.2517 0.0000
vt 0.0282 0.2545 0.0000
vt 0.0289 0.1990 0.0000
vt 0.0031 0.1981 0.0000
vt 0.0024 0.1454 0.0000
vt 0.0262 0.1454 0.0000
# 222 texture coords

g Line002
s 1
f 1/1/1 2/2/1 3/3/1 4/4/1 
s 4
f 5/5/2 1/6/2 4/7/2 6/8/2 
s 2
f 7/9/3 5/10/3 6/11/3 8/12/3 
s 4
f 9/13/4 7/14/4 8/15/4 10/16/4 
s 2
f 11/17/5 9/18/5 10/19/5 12/20/5 
s 4
f 13/21/6 11/22/6 12/23/6 14/24/6 
s 2
f 15/25/1 13/26/1 14/27/1 16/28/1 
s 4
f 17/29/7 15/21/7 16/24/7 18/30/7 
s 2
f 19/31/8 17/32/8 18/33/8 20/34/8 
s 4
f 21/35/9 19/36/9 20/37/9 22/38/9 
s 2
f 23/39/10 21/40/10 22/41/10 24/42/10 
s 4
f 25/29/11 23/14/11 24/15/11 26/30/11 
s 2
f 27/43/12 25/44/12 26/45/12 28/46/12 
s 4
f 29/47/2 27/36/2 28/37/2 30/48/2 
s 2
f 31/49/13 29/50/13 30/51/13 32/52/13 
s 4
f 33/36/4 31/53/4 32/54/4 34/37/4 
s 2
f 35/55/14 33/56/14 34/57/14 36/58/14 
s 4
f 37/59/15 35/60/15 36/61/15 38/62/15 
s 2
f 39/63/16 37/64/16 38/65/16 40/66/16 
s 4
f 41/67/17 39/35/17 40/38/17 42/68/17 
s 2
f 43/69/18 41/70/18 42/71/18 44/72/18 
s 4
f 45/47/15 43/73/15 44/74/15 46/48/15 
s 2
f 47/75/19 45/76/19 46/77/19 48/78/19 
s 4
f 49/73/20 47/35/20 48/38/20 50/74/20 
s 2
f 51/79/21 49/80/21 50/81/21 52/82/21 
s 4
f 53/35/22 51/83/22 52/84/22 54/38/22 
s 2
f 55/85/23 53/86/23 54/87/23 56/88/23 
s 4
f 57/67/24 55/53/24 56/54/24 58/68/24 
s 2
f 59/89/25 57/90/25 58/91/25 60/92/25 
s 4
f 61/93/9 59/60/9 60/61/9 62/94/9 
s 2
f 63/95/13 61/89/13 62/92/13 64/96/13 
s 4
f 65/60/24 63/35/24 64/38/24 66/61/24 
s 2
f 67/97/26 65/98/26 66/99/26 68/100/26 
s 4
f 69/101/27 67/102/27 68/103/27 70/104/27 
s 2
f 71/105/28 69/101/28 70/104/28 72/106/28 
s 4
f 73/107/29 71/105/29 72/106/29 74/108/29 
s 2
f 75/109/30 73/110/30 74/111/30 76/112/30 
s 4
f 77/113/31 75/114/31 76/115/31 78/116/31 
s 2
f 79/117/32 77/118/32 78/119/32 80/120/32 
s 4
f 81/121/33 79/122/33 80/123/33 82/124/33 
s 2
f 83/125/34 81/121/34 82/124/34 84/126/34 
s 4
f 85/127/35 83/128/35 84/129/35 86/130/35 
s 2
f 87/131/36 85/127/36 86/130/36 88/132/36 
s 4
f 2/133/37 87/131/37 88/132/37 3/134/37 
s 16
f 62/135/38 60/136/38 58/137/38 56/138/38 
f 54/139/38 52/140/38 50/141/38 48/142/38 
f 46/143/38 44/144/38 42/145/38 40/146/38 
f 38/147/38 36/148/38 34/149/38 32/150/38 
f 30/151/38 28/152/38 26/153/38 24/154/38 
f 22/155/38 20/156/38 18/157/38 16/158/38 
f 14/159/38 12/160/38 10/161/38 8/162/38 
f 6/163/38 4/164/38 3/165/38 88/166/38 
f 6/163/38 88/166/38 86/167/38 8/162/38 
f 14/159/38 8/162/38 86/167/38 16/158/38 
f 22/155/38 16/158/38 86/167/38 24/154/38 
f 30/151/38 24/154/38 86/167/38 32/150/38 
f 38/147/38 32/150/38 86/167/38 40/146/38 
f 46/143/38 40/146/38 86/167/38 48/142/38 
f 54/139/38 48/142/38 86/167/38 56/138/38 
f 62/135/38 56/138/38 86/167/38 64/168/38 
f 80/169/38 78/170/38 76/171/38 74/172/38 
f 82/173/38 80/169/38 74/172/38 84/174/38 
f 86/167/38 84/174/38 74/172/38 72/175/38 
f 64/168/38 86/167/38 72/175/38 70/176/38 
f 66/177/38 64/168/38 70/176/38 68/178/38 
f 65/179/39 67/180/39 69/181/39 63/182/39 
f 75/183/39 77/184/39 79/185/39 73/186/39 
f 73/186/39 79/185/39 81/187/39 83/188/39 
f 73/186/39 83/188/39 85/189/39 71/190/39 
f 2/191/39 1/192/39 5/193/39 87/194/39 
f 85/189/39 87/194/39 5/193/39 7/195/39 
f 9/196/39 11/197/39 13/198/39 7/195/39 
f 85/189/39 7/195/39 13/198/39 15/199/39 
f 17/200/39 19/201/39 21/202/39 15/199/39 
f 85/189/39 15/199/39 21/202/39 23/203/39 
f 25/204/39 27/205/39 29/206/39 23/203/39 
f 85/189/39 23/203/39 29/206/39 31/207/39 
f 33/208/39 35/209/39 37/210/39 31/207/39 
f 85/189/39 31/207/39 37/210/39 39/211/39 
f 41/212/39 43/213/39 45/214/39 39/211/39 
f 85/189/39 39/211/39 45/214/39 47/215/39 
f 49/216/39 51/217/39 53/218/39 47/215/39 
f 85/189/39 47/215/39 53/218/39 55/219/39 
f 57/220/39 59/221/39 61/222/39 55/219/39 
f 85/189/39 55/219/39 61/222/39 63/182/39 
f 71/190/39 85/189/39 63/182/39 69/181/39 
# 86 polygons

