# 3ds Max Wavefront OBJ Exporter v0.97b - (c)2007 guruware
# File Created: 17.12.2015 10:50:58

#
# object stairs
#

v  -0.1891 0.0700 0.5784
v  -0.1891 0.0700 -0.5754
v  -0.1891 0.0000 -0.5754
v  -0.1891 0.0000 0.5784
v  0.1906 0.0700 0.5844
v  0.1906 0.0000 0.5844
v  0.1876 0.0700 -0.5874
v  0.1876 0.0000 -0.5874
# 8 vertices

vn -1.0000 0.0000 -0.0000
vn -0.0157 0.0000 0.9999
vn 1.0000 0.0000 -0.0026
vn -0.0317 0.0000 -0.9995
vn 0.0000 -1.0000 -0.0000
vn 0.0000 1.0000 -0.0000
# 6 vertex normals

vt 0.2444 0.0013 0.0000
vt 0.2444 0.9987 0.0000
vt 0.0019 0.9987 0.0000
vt 0.0019 0.0013 0.0000
vt 0.0305 0.9188 0.0000
vt 1.0143 0.9188 0.0000
vt 1.0143 0.9938 0.0000
vt 0.0305 0.9938 0.0000
vt 0.9926 0.0013 0.0000
vt 0.9926 0.9945 0.0000
vt 0.7542 0.9945 0.0000
vt 0.7542 0.0013 0.0000
vt 0.0092 0.0069 0.0000
vt 0.9777 0.0069 0.0000
vt 0.9777 0.0936 0.0000
vt 0.0092 0.0936 0.0000
vt 1.0078 0.9944 0.0000
vt 0.0243 0.9944 0.0000
vt 0.0243 0.0041 0.0000
vt 1.0078 0.0041 0.0000
vt 0.9926 1.0027 0.0000
vt 0.0019 1.0027 0.0000
# 22 texture coords

g stairs
s 1
f 1/1/1 2/2/1 3/3/1 4/4/1 
s 4
f 5/5/2 1/6/2 4/7/2 6/8/2 
s 2
f 7/9/3 5/10/3 6/11/3 8/12/3 
s 4
f 2/13/4 7/14/4 8/15/4 3/16/4 
s 16
f 6/17/5 4/18/5 3/19/5 8/20/5 
f 2/9/6 1/21/6 5/22/6 7/4/6 
# 6 polygons

